<?xml version="1.0" standalone="no"?>
<!DOCTYPE svg PUBLIC "-//W3C//DTD SVG 20010904//EN"
 "http://www.w3.org/TR/2001/REC-SVG-20010904/DTD/svg10.dtd">
<svg version="1.0" xmlns="http://www.w3.org/2000/svg"
 width="80.000000pt" height="80.000000pt" viewBox="0 0 80.000000 80.000000"
 preserveAspectRatio="xMidYMid meet">
<metadata>
Created by potrace 1.11, written by Peter Selinger 2001-2013
</metadata>
<g transform="translate(0.000000,80.000000) scale(0.100000,-0.100000)"
fill="#000000" stroke="none">
<path d="M342 685 c-18 -29 -32 -58 -32 -64 0 -6 -4 -11 -10 -11 -5 0 -12 -11
-16 -25 -3 -14 -11 -25 -17 -25 -6 0 -8 -3 -5 -6 6 -5 -26 -60 -52 -91 -6 -7
-8 -13 -5 -13 3 0 -6 -17 -20 -37 -14 -21 -25 -43 -25 -49 0 -7 -4 -14 -8 -16
-4 -1 -25 -34 -47 -73 -21 -38 -42 -73 -47 -76 -6 -3 -9 -8 -9 -10 2 -12 -13
-49 -19 -49 -4 0 -10 -8 -14 -17 -3 -10 -8 -23 -11 -29 -4 -7 34 -10 118 -9
96 0 127 4 138 15 12 14 50 81 83 147 6 13 14 23 19 23 4 0 7 6 7 13 0 7 11
29 25 48 13 20 22 39 19 41 -2 3 2 11 11 18 8 7 15 19 15 26 0 27 27 13 46
-23 10 -21 21 -40 24 -43 9 -8 100 -167 100 -174 0 -2 -53 -4 -117 -5 -99 0
-120 -3 -130 -17 -7 -9 -10 -21 -7 -25 3 -5 0 -9 -5 -9 -15 0 -14 -30 2 -31
11 -1 134 -1 315 0 64 1 82 4 82 15 0 8 -6 21 -14 28 -7 8 -17 24 -20 36 -4
12 -12 22 -17 22 -5 0 -9 6 -9 14 0 8 -6 21 -13 28 -7 7 -13 15 -13 18 0 3
-20 39 -44 80 -24 41 -43 76 -42 78 2 1 -4 10 -13 18 -8 9 -15 21 -15 29 0 7
-4 15 -8 17 -5 2 -24 31 -42 66 -34 64 -45 71 -64 36 -6 -10 -13 -21 -16 -24
-3 -3 -15 -25 -28 -49 -31 -61 -56 -105 -62 -111 -3 -3 -14 -21 -24 -40 -105
-194 -100 -187 -137 -182 l-28 4 25 39 c13 21 24 43 24 49 0 5 5 10 11 10 5 0
7 5 4 10 -3 6 -1 10 4 10 6 0 11 7 11 15 0 8 5 15 11 15 5 0 7 5 4 10 -3 6 -2
10 3 10 6 0 14 13 20 28 5 16 17 36 27 45 9 9 14 17 10 17 -3 0 3 14 15 30 12
17 18 30 15 30 -4 0 1 7 9 16 9 8 16 22 16 30 0 8 4 14 9 14 5 0 12 11 15 25
4 17 11 23 19 19 7 -4 9 -4 5 0 -4 5 1 22 11 39 13 24 14 37 6 55 -5 12 -13
22 -18 22 -4 0 -6 4 -3 9 3 5 0 11 -7 14 -8 3 -26 -15 -45 -48z"/>
</g>
</svg>
